<svg xmlns="http://www.w3.org/2000/svg" xmlns:xlink="http://www.w3.org/1999/xlink" viewBox="0 0 234.67 278.96"><defs><style>.cls-1{fill:none;}.cls-2{fill:#fbfdf5;}.cls-3{isolation:isolate;}.cls-4{clip-path:url(#clip-path);}</style><clipPath id="clip-path" transform="translate(0 0)"><rect class="cls-1" width="236.75" height="286.5"/></clipPath></defs><g id="Layer_2" data-name="Layer 2"><g id="Layer_1-2" data-name="Layer 1"><rect class="cls-2" x="12.02" y="38.42" width="30.88" height="63.29"/><rect class="cls-2" x="54.58" width="30.88" height="141.88"/><polygon class="cls-2" points="128.02 181.92 97.14 182.06 97.14 38.85 128.02 38.85 128.02 181.92"/><rect class="cls-2" x="139.7" width="30.88" height="141.88"/><rect class="cls-2" x="182.26" y="38.42" width="30.88" height="63.29"/><g class="cls-3"><g class="cls-4"><path class="cls-2" d="M9.44,232.47c0,5.53,3.45,10.09,9.51,10.09s9.37-4.56,9.37-10.09-3.25-9.64-9.37-9.64S9.44,227,9.44,232.47M8,264.92,0,265V216.52l8-.07v2.35c0,1.95-1.11,4.23-1.76,6.12l1.37.45c.65-1.89,1-4.56,2.28-5.92a13.45,13.45,0,0,1,10.15-4c9.77,0,16.47,7.55,16.28,17.19C36.07,242,29.49,250,20.05,250A13.54,13.54,0,0,1,10,245.75c-1.37-1.37-1.69-4-2.34-5.86l-1.37.46c.58,1.88,1.76,4.16,1.76,6.12Z" transform="translate(0 0)"/><path class="cls-2" d="M55.08,242.62c5.34,0,8.92-4.75,9.12-10.09,0-5.73-3.19-9.63-9.12-9.63-5.4,0-9,4.1-9,9.63s3.58,10.09,9,10.09m-.45,7.43c-9.7,0-16.54-7.82-16.54-17.52s6.84-17.05,16.54-17.05a13.2,13.2,0,0,1,10.09,4c1.37,1.43,1.63,4.1,2.28,6l1.37-.45c-.59-1.89-1.76-4.17-1.76-6.12l-.07-2.48h8V249h-8l.07-2.66c0-2,1.17-4.3,1.76-6.12l-1.44-.46c-.58,1.82-.84,4.49-2.15,6a13.14,13.14,0,0,1-10.15,4.3" transform="translate(0 0)"/><path class="cls-2" d="M94.93,250.05c-11.2,0-16.47-6.64-16.47-12.11h8c0,1.69,3.19,4.62,9.31,4.62,5,0,6.57-1.76,6.57-3.58,0-6.38-23.63-2.15-23.63-13.87,0-5.08,4.88-9.63,15.17-9.63,11.52,0,15.89,5.66,15.89,10.22h-8c0-2.09-3.06-3.71-8.33-3.71-3.59,0-6.71,1-6.71,3.06,0,4.68,23.76.19,23.76,13.41,0,6.31-4.95,11.59-15.56,11.59" transform="translate(0 0)"/><path class="cls-2" d="M129.05,250.05c-11.19,0-16.47-6.64-16.47-12.11h8c0,1.69,3.19,4.62,9.31,4.62,4.95,0,6.58-1.76,6.58-3.58,0-6.38-23.64-2.15-23.64-13.87,0-5.08,4.89-9.63,15.17-9.63,11.53,0,15.89,5.66,15.89,10.22h-8c0-2.09-3.06-3.71-8.33-3.71-3.58,0-6.71,1-6.71,3.06,0,4.68,23.76.19,23.76,13.41,0,6.31-4.94,11.59-15.56,11.59" transform="translate(0 0)"/><rect class="cls-2" x="148.39" y="203.35" width="8.66" height="8.14"/><rect class="cls-2" x="148.78" y="216.45" width="7.88" height="32.55"/><path class="cls-2" d="M179.84,242.36c7.23,0,10.16-4.36,10.16-9.7s-2.93-9.5-10.16-9.5-10.09,4.17-10.09,9.5,2.93,9.7,10.09,9.7m0-26.88c11.26,0,18.62,7.16,18.62,17.18s-7.36,17.39-18.62,17.39-18.55-6.9-18.55-17.39,7.35-17.18,18.55-17.18" transform="translate(0 0)"/><path class="cls-2" d="M222.88,215.48c6.64,0,11.79,3.77,11.79,11.19V249h-8V232.4c0-6.25-2.28-9.05-7-9.05-5.21,0-9.64,2.8-9.64,9.05V249h-7.94V216.45H210V217c0,2.61-1.3,5.73-2.28,8.21l1.37.58c1-2.47,1.89-6,4-7.61,2.73-2.15,5.6-2.67,9.83-2.67" transform="translate(0 0)"/><rect class="cls-2" x="88.16" y="258" width="3.28" height="20.3"/><path class="cls-2" d="M102.86,275.89c-3,0-4.58-2-4.58-4.76s1.62-4.93,4.58-4.93,4.55,2.24,4.55,4.93S105.82,275.89,102.86,275.89Zm-5-18.62h-3v21h3v-1.05a9.94,9.94,0,0,0-.72-2.72l.55-.18a6.67,6.67,0,0,0,1,2.61,5.94,5.94,0,0,0,4.47,1.8,7.2,7.2,0,0,0,7.28-7.66c-.06-4.23-3.08-7.74-7.28-7.74a6,6,0,0,0-4.47,1.86,7.3,7.3,0,0,0-1,2.64l-.55-.21a9.94,9.94,0,0,0,.72-2.72Z" transform="translate(0 0)"/><path class="cls-2" d="M112.58,278.3h3V263.8h-3Zm-.18-17.11h3.34V258H112.4Z" transform="translate(0 0)"/><path class="cls-2" d="M118.06,275.6v2.7h13.28v-2.85h-7.8a5.25,5.25,0,0,0-1.92.67l-.23-.55a5.53,5.53,0,0,0,1.83-.87l7.8-8.06V263.8H118.23v2.84h7.37a5.34,5.34,0,0,0,1.82-.67l.24.55a5,5,0,0,0-1.74.84Z" transform="translate(0 0)"/><path class="cls-2" d="M135.8,271c0-2.7,1.69-4.76,4.5-4.76s4.52,1.89,4.52,4.76c-.11,2.58-1.77,4.93-4.52,4.93S135.8,273.66,135.8,271Zm9,5.89a7.62,7.62,0,0,0,1-2.67l.55.17a12,12,0,0,0-.78,2.76l0,1.19h3V263.8h-3l0,1.1a11.68,11.68,0,0,0,.78,2.72l-.55.18a7,7,0,0,0-1-2.64,6.11,6.11,0,0,0-4.59-1.8,7.28,7.28,0,0,0-7.39,7.6c0,4.32,3.07,7.8,7.39,7.8A6,6,0,0,0,144.77,276.85Z" transform="translate(0 0)"/><path class="cls-2" d="M161.56,260.37h3.51c2.84,0,5.07.44,5.07,3.37s-2.44,3.74-5.07,3.74h-3.51Zm8.46,9c-.78-.49-2.05-.23-3-.23v-.58a8.43,8.43,0,0,0,3-.23c1.92-.78,3.4-1.94,3.4-4.64,0-4.76-3.71-5.68-8.18-5.68h-6.87v20.3h3.19v-8.07l2.87,0c2.61,0,4.06.32,4.87,3.19.12.41.64,2.29,1.28,4.85h3.33s-1.28-3.92-1.57-5.08C171.85,271.25,171.16,270,170,269.36Z" transform="translate(0 0)"/><path class="cls-2" d="M178.38,271c0-2.7,1.68-4.76,4.49-4.76s4.53,1.89,4.53,4.76c-.12,2.58-1.77,4.93-4.53,4.93S178.38,273.66,178.38,271Zm9,5.89a7.62,7.62,0,0,0,1-2.67l.55.17a12,12,0,0,0-.78,2.76l0,1.19h3V263.8h-3l0,1.1a11.68,11.68,0,0,0,.78,2.72l-.55.18a7,7,0,0,0-1-2.64,6.08,6.08,0,0,0-4.58-1.8,7.28,7.28,0,0,0-7.4,7.6c0,4.32,3.08,7.8,7.4,7.8A6,6,0,0,0,187.34,276.85Z" transform="translate(0 0)"/><path class="cls-2" d="M200.62,275.89c-3,0-4.5-2-4.5-4.76s1.51-4.93,4.5-4.93,4.64,2.24,4.64,4.93S203.64,275.89,200.62,275.89Zm5.07-11a9.05,9.05,0,0,0,.76,2.72l-.55.21a7.36,7.36,0,0,0-1.08-2.64,6,6,0,0,0-4.52-1.86c-4.23,0-7.16,3.51-7.22,7.74s2.87,7.66,7.22,7.66a6,6,0,0,0,4.52-1.8,7.21,7.21,0,0,0,1.08-2.61l.55.18a9.3,9.3,0,0,0-.76,2.72v1.05h3.05v-21h-3.05Z" transform="translate(0 0)"/><path class="cls-2" d="M211.7,278.3h3V263.8h-3Zm-.18-17.11h3.34V258h-3.34Z" transform="translate(0 0)"/><path class="cls-2" d="M220.14,271c0-2.64,1.48-4.7,4.81-4.7s4.81,2.06,4.81,4.7-1.5,4.84-4.81,4.84S220.14,273.66,220.14,271ZM217,271c0,4.58,3.22,7.77,8,7.77s8-3.33,8-7.77-3.21-7.63-8-7.63S217,266.44,217,271Z" transform="translate(0 0)"/><polygon class="cls-2" points="81.3 272.77 81.3 278.96 36.33 278.96 36.33 272.84 47.59 265.5 58.82 273.06 70.18 265.33 81.3 272.77"/></g></g></g></g></svg>