<svg xmlns="http://www.w3.org/2000/svg" xmlns:xlink="http://www.w3.org/1999/xlink" viewBox="0 0 155.76 47.08"><defs><style>.cls-1{fill:none;}.cls-2{clip-path:url(#clip-path);}.cls-3{isolation:isolate;}.cls-4{clip-path:url(#clip-path-2);}.cls-5{fill:#fbfdf5;}</style><clipPath id="clip-path" transform="translate(0 -18.12)"><rect class="cls-1" width="181.36" height="69.53"/></clipPath><clipPath id="clip-path-2" transform="translate(0 -18.12)"><rect class="cls-1" x="-0.07" y="-0.24" width="181.5" height="70"/></clipPath></defs><g id="Layer_2" data-name="Layer 2"><g id="Layer_1-2" data-name="Layer 1"><g class="cls-2"><g class="cls-3"><g class="cls-4"><rect class="cls-5" x="72.59" y="35.63" width="1.81" height="11.2"/><path class="cls-5" d="M80.7,63.61A2.41,2.41,0,0,1,78.17,61a2.53,2.53,0,1,1,5,0A2.4,2.4,0,0,1,80.7,63.61ZM77.93,53.34H76.25v11.6h1.68v-.57a5.36,5.36,0,0,0-.4-1.51l.31-.09a3.78,3.78,0,0,0,.57,1.44,3.29,3.29,0,0,0,2.47,1,4,4,0,0,0,4-4.23,4.12,4.12,0,0,0-4-4.27,3.28,3.28,0,0,0-2.47,1,3.93,3.93,0,0,0-.57,1.45l-.31-.11a5.29,5.29,0,0,0,.4-1.5Z" transform="translate(0 -18.12)"/><path class="cls-5" d="M86.06,64.94h1.68v-8H86.06ZM86,55.5h1.84V53.74H86Z" transform="translate(0 -18.12)"/><path class="cls-5" d="M89.07,63.45v1.49H96.4V63.37H92.09a2.94,2.94,0,0,0-1,.37l-.13-.3a3.14,3.14,0,0,0,1-.48l4.3-4.45V56.94h-7v1.57h4.06a2.94,2.94,0,0,0,1-.37l.13.31a2.59,2.59,0,0,0-1,.46Z" transform="translate(0 -18.12)"/><path class="cls-5" d="M98.86,60.89a2.43,2.43,0,0,1,2.48-2.62,2.36,2.36,0,0,1,2.5,2.62,2.62,2.62,0,0,1-2.5,2.72A2.52,2.52,0,0,1,98.86,60.89Zm5,3.25a4.36,4.36,0,0,0,.56-1.47l.3.1a6.4,6.4,0,0,0-.43,1.52l0,.65h1.68v-8h-1.68l0,.61a6.24,6.24,0,0,0,.43,1.5l-.3.1a4,4,0,0,0-.58-1.46,3.37,3.37,0,0,0-2.53-1,4,4,0,0,0-4.08,4.19,4.11,4.11,0,0,0,4.08,4.31A3.33,3.33,0,0,0,103.81,64.14Z" transform="translate(0 -18.12)"/><path class="cls-5" d="M113.05,55.05H115c1.57,0,2.8.24,2.8,1.86S116.45,59,115,59h-1.94Zm4.68,5a3.37,3.37,0,0,0-1.65-.12v-.32a4.78,4.78,0,0,0,1.65-.13,2.54,2.54,0,0,0,1.87-2.56c0-2.63-2-3.14-4.51-3.14h-3.8v11.2h1.76V60.49l1.59,0c1.44,0,2.24.18,2.69,1.76.06.22.35,1.26.7,2.67h1.84s-.7-2.16-.86-2.8A3.18,3.18,0,0,0,117.73,60Z" transform="translate(0 -18.12)"/><path class="cls-5" d="M122.33,60.89a2.43,2.43,0,0,1,2.48-2.62,2.36,2.36,0,0,1,2.5,2.62,2.61,2.61,0,0,1-2.5,2.72A2.52,2.52,0,0,1,122.33,60.89Zm5,3.25a4.36,4.36,0,0,0,.56-1.47l.3.1a6.9,6.9,0,0,0-.43,1.52l0,.65h1.68v-8h-1.68l0,.61a6.74,6.74,0,0,0,.43,1.5l-.3.1a4,4,0,0,0-.58-1.46,3.37,3.37,0,0,0-2.53-1,4,4,0,0,0-4.08,4.19,4.11,4.11,0,0,0,4.08,4.31A3.31,3.31,0,0,0,127.28,64.14Z" transform="translate(0 -18.12)"/><path class="cls-5" d="M134.61,63.61A2.36,2.36,0,0,1,132.13,61a2.45,2.45,0,0,1,2.48-2.72A2.5,2.5,0,0,1,137.17,61,2.42,2.42,0,0,1,134.61,63.61Zm2.8-6a5,5,0,0,0,.41,1.5l-.3.11a4.14,4.14,0,0,0-.59-1.45,3.33,3.33,0,0,0-2.5-1,4.08,4.08,0,0,0-4,4.27,3.93,3.93,0,0,0,4,4.23,3.35,3.35,0,0,0,2.5-1,4.17,4.17,0,0,0,.59-1.44l.3.09a5.23,5.23,0,0,0-.41,1.51v.57h1.68V53.34h-1.68Z" transform="translate(0 -18.12)"/><path class="cls-5" d="M140.72,64.94h1.68v-8h-1.68Zm-.1-9.44h1.84V53.74h-1.84Z" transform="translate(0 -18.12)"/><path class="cls-5" d="M145.39,60.91a2.66,2.66,0,0,1,5.31,0,2.66,2.66,0,1,1-5.31,0Zm-1.76,0a4.42,4.42,0,1,0,4.42-4.21A4.09,4.09,0,0,0,143.63,60.91Z" transform="translate(0 -18.12)"/><path class="cls-5" d="M6.27,37.17c0,3.67,2.29,6.7,6.31,6.7s6.22-3,6.22-6.7-2.16-6.4-6.22-6.4-6.31,2.77-6.31,6.4M5.32,59,0,59V26.58l5.32,0V28.1a14.19,14.19,0,0,1-1.17,4.06l.91.3c.43-1.25.64-3,1.51-3.93a8.91,8.91,0,0,1,6.74-2.68c6.48,0,10.93,5,10.8,11.41-.17,6.22-4.53,11.53-10.8,11.53A9,9,0,0,1,6.61,46c-.91-.91-1.12-2.68-1.55-3.89l-.91.3c.39,1.25,1.17,2.76,1.17,4.06Z" transform="translate(0 -18.12)"/><path class="cls-5" d="M36.56,43.91c3.55,0,5.92-3.15,6-6.7,0-3.8-2.11-6.39-6-6.39-3.58,0-6,2.72-6,6.39s2.38,6.7,6,6.7m-.3,4.93c-6.44,0-11-5.19-11-11.63s4.54-11.32,11-11.32A8.79,8.79,0,0,1,43,28.57c.91.95,1.08,2.72,1.51,4l.91-.31C45,31,44.21,29.48,44.21,28.18l0-1.64h5.31V48.15H44.17l0-1.77a15,15,0,0,1,1.17-4.07l-1-.3c-.39,1.21-.56,3-1.43,4a8.73,8.73,0,0,1-6.74,2.85" transform="translate(0 -18.12)"/><path class="cls-5" d="M63,48.84c-7.43,0-10.93-4.41-10.93-8h5.31c0,1.12,2.12,3.07,6.18,3.07,3.29,0,4.37-1.17,4.37-2.38,0-4.23-15.69-1.42-15.69-9.2,0-3.37,3.24-6.4,10.07-6.4,7.65,0,10.54,3.76,10.54,6.78H67.55c0-1.38-2-2.46-5.53-2.46-2.38,0-4.45.65-4.45,2,0,3.11,15.77.13,15.77,8.91,0,4.19-3.29,7.69-10.33,7.69" transform="translate(0 -18.12)"/><path class="cls-5" d="M85.66,48.84c-7.43,0-10.93-4.41-10.93-8H80c0,1.12,2.12,3.07,6.18,3.07,3.28,0,4.36-1.17,4.36-2.38,0-4.23-15.68-1.42-15.68-9.2,0-3.37,3.24-6.4,10.07-6.4,7.65,0,10.54,3.76,10.54,6.78H90.2c0-1.38-2-2.46-5.54-2.46-2.37,0-4.45.65-4.45,2,0,3.11,15.78.13,15.78,8.91,0,4.19-3.29,7.69-10.33,7.69" transform="translate(0 -18.12)"/><rect class="cls-5" x="98.5" width="5.75" height="5.13"/><rect class="cls-5" x="98.75" y="8.42" width="5.23" height="21.61"/><path class="cls-5" d="M119.37,43.74c4.8,0,6.74-2.9,6.74-6.44S124.17,31,119.37,31s-6.7,2.77-6.7,6.31,1.94,6.44,6.7,6.44m0-17.85c7.47,0,12.36,4.75,12.36,11.41s-4.89,11.54-12.36,11.54-12.32-4.58-12.32-11.54,4.89-11.41,12.32-11.41" transform="translate(0 -18.12)"/><path class="cls-5" d="M147.94,25.89c4.4,0,7.82,2.51,7.82,7.43V48.15h-5.32v-11c0-4.15-1.51-6-4.66-6-3.46,0-6.4,1.86-6.4,6v11h-5.27V26.54h5.27v.35a16.52,16.52,0,0,1-1.51,5.44l.91.39c.64-1.64,1.25-4,2.63-5.06,1.82-1.42,3.72-1.77,6.53-1.77" transform="translate(0 -18.12)"/></g></g></g></g></g></svg>